<svg xmlns="http://www.w3.org/2000/svg" xmlns:xlink="http://www.w3.org/1999/xlink" width="131" height="213" viewBox="0 0 131 213">
<defs><g id="star"><path d="M108.48,222.97L79.73,223.24L73.94,266.25L71.30,227.98L65.45,246.61L63.91,230.75L49.92,258.89L56.30,228.69L40.08,241.50L50.27,223.84L18.23,231.60L49.14,216.69L32.45,210.53L50.65,209.51L17.14,200.17L54.96,201.23L58.99,184.23L63.02,167.22L68.37,193.34L87.62,163.05L75.10,202.95L101.49,197.22L86.17,214.69L108.48,222.97Z" fill="none" stroke="#0A0A0D" stroke-width="1.5"/><path d="M79.25,216.19L70.05,216.28L68.20,230.04L67.36,217.79L65.48,223.76L64.99,218.68L60.51,227.68L62.56,218.02L57.37,222.12L60.63,216.47L50.37,218.95L60.27,214.18L54.92,212.21L60.75,211.88L50.02,208.89L62.13,209.23L63.42,203.79L64.71,198.35L66.42,206.71L72.58,197.02L68.57,209.78L77.02,207.95L72.12,213.54L79.25,216.19Z" fill="#0A0A0D"/><path d="M42.98,116.47L14.23,116.74L8.44,159.75L5.80,121.48L-0.05,140.11L-1.59,124.25L-15.58,152.39L-9.20,122.19L-25.42,135.00L-15.23,117.34L-47.27,125.10L-16.36,110.19L-33.05,104.03L-14.85,103.01L-48.36,93.67L-10.54,94.73L-6.51,77.73L-2.48,60.72L2.87,86.84L22.12,56.55L9.60,96.45L35.99,90.72L20.67,108.19L42.98,116.47Z" fill="#0A0A0D"/></g></defs>
<use href="#star" x="-131" y="-213"/>
<use href="#star" x="-131" y="0"/>
<use href="#star" x="-131" y="213"/>
<use href="#star" x="0" y="-213"/>
<use href="#star" x="0" y="0"/>
<use href="#star" x="0" y="213"/>
<use href="#star" x="131" y="-213"/>
<use href="#star" x="131" y="0"/>
<use href="#star" x="131" y="213"/>
</svg>
